<svg version="1.1" id="Layer_1" xmlns="http://www.w3.org/2000/svg" xmlns:xlink="http://www.w3.org/1999/xlink" x="0px" y="0px"
	 width="100%" viewBox="0 0 408 612" enable-background="new 0 0 408 612" xml:space="preserve">
<path fill="#000000" opacity="0.000000" stroke="none" 
	d="
M1.000000,229.000000 
	C1.000000,152.685242 1.000000,76.870499 1.000000,1.027873 
	C136.948090,1.027873 272.896179,1.027873 408.922119,1.027873 
	C408.922119,204.898087 408.922119,408.796204 408.922119,612.847168 
	C273.000122,612.847168 137.000092,612.847168 1.000000,612.847168 
	C1.000000,485.103851 1.000000,357.301910 1.000000,229.000000 
M45.236908,256.849335 
	C45.921238,264.126190 50.450089,268.621002 55.954342,272.810303 
	C57.794098,274.210541 58.786228,277.492065 59.058491,280.032288 
	C59.726070,286.260834 59.544373,292.575897 60.076759,298.824432 
	C60.984436,309.477631 62.338840,320.093384 63.204174,330.749359 
	C64.018616,340.778564 64.395912,350.842529 65.060677,360.884918 
	C65.387184,365.817261 65.926422,370.735596 66.374275,375.659821 
	C66.940788,381.888702 67.597008,388.110901 68.057716,394.347565 
	C68.514832,400.535492 68.642548,406.749023 69.154999,412.931396 
	C70.038383,423.588745 71.170364,434.225372 72.080299,444.880768 
	C72.849854,453.892273 73.324104,462.930054 74.167061,471.933899 
	C74.945877,480.252563 76.060486,488.539429 76.990768,496.844360 
	C77.836876,504.397766 77.467644,512.221802 81.308731,519.178650 
	C78.948578,520.112732 76.236511,520.589050 74.301750,522.076477 
	C70.316025,525.140747 65.349640,528.074768 63.329220,532.283020 
	C60.253513,538.689270 64.169701,546.767639 70.341591,550.820923 
	C79.791885,557.027161 90.236031,560.946167 101.020271,564.037170 
	C108.248459,566.108826 115.438057,568.466797 122.801964,569.876038 
	C132.652588,571.761230 142.649506,572.893250 152.594315,574.271362 
	C161.939117,575.566223 171.303467,577.843140 180.649353,577.794434 
	C207.811478,577.652954 235.121567,580.198059 262.050568,574.055725 
	C276.007446,570.872192 290.237274,568.826782 304.099854,565.306519 
	C315.905090,562.308777 327.008820,557.202026 337.548370,550.901550 
	C346.869598,545.329346 348.350433,532.778809 339.684204,526.349243 
	C335.554260,523.285217 330.480042,521.494019 325.938751,518.319031 
	C327.586914,509.427155 329.649597,500.587891 330.786346,491.631104 
	C332.501282,478.118622 333.569458,464.524048 334.917328,450.964844 
	C334.933411,450.803345 335.042725,450.651398 335.060486,450.489716 
	C336.368835,438.580811 337.690674,426.673309 338.952698,414.759491 
	C339.109161,413.282349 338.796112,411.755402 338.953369,410.278442 
	C340.255798,398.045532 341.652313,385.822571 342.928894,373.587067 
	C343.151031,371.457977 342.754822,369.265533 342.964691,367.133881 
	C344.240234,354.178040 345.629364,341.233429 346.921906,328.279236 
	C347.102081,326.473328 346.824249,324.622955 346.987671,322.813873 
	C348.305908,308.220459 349.952301,293.648438 350.829956,279.029755 
	C351.031799,275.667816 352.206879,274.104156 354.456696,272.279053 
	C359.427673,268.246460 364.737091,264.342377 365.822784,256.648651 
	C365.882660,249.224762 366.009430,241.800385 365.954590,234.377335 
	C365.941162,232.557892 365.334137,230.742813 364.965485,228.219070 
	C362.334503,224.675308 359.650513,221.169327 357.089020,217.576019 
	C354.977905,214.614441 352.650085,211.722473 351.096802,208.475113 
	C349.867157,205.904358 349.938599,202.744278 348.963837,200.013092 
	C343.876831,185.759201 337.283020,172.243225 327.241852,160.796082 
	C320.121674,152.678925 312.922760,144.460205 304.716705,137.519028 
	C297.907990,131.759811 289.577820,127.799286 281.450897,122.551605 
	C276.612610,120.178223 271.712341,117.919868 266.971710,115.365273 
	C265.437286,114.538422 263.264587,112.967232 263.224731,111.679512 
	C263.128815,108.581871 264.033508,105.431679 264.691406,102.336021 
	C267.478729,89.220673 270.323334,76.117493 273.628845,62.531471 
	C274.329224,60.296329 275.002991,58.052437 275.734619,55.827572 
	C278.828156,46.419884 275.932678,39.374241 266.928680,34.960865 
	C256.593658,29.895075 245.673203,27.567524 234.121140,28.081352 
	C227.110458,28.393183 222.759888,31.610340 221.007065,38.272030 
	C219.390961,44.414139 217.683853,50.533028 216.138733,56.692715 
	C215.546585,59.053307 215.292084,61.498589 214.284210,64.393112 
	C211.058884,77.475746 207.833557,90.558380 204.701614,103.262222 
	C196.233902,104.228439 188.088501,104.511620 180.246201,106.201439 
	C167.918335,108.857796 155.470261,111.578758 143.675323,115.911728 
	C131.773636,120.283897 120.183304,125.984787 110.668625,134.805847 
	C102.412750,142.459885 94.006676,150.012665 86.383125,158.271286 
	C78.469215,166.844452 72.124481,176.694016 67.762016,187.603470 
	C64.626320,195.445038 61.967155,203.476959 59.077549,211.417450 
	C58.701912,212.449707 58.475826,214.052719 57.746483,214.359467 
	C51.025642,217.186096 47.565365,222.751587 44.126469,229.456299 
	C44.085049,236.204483 43.961926,242.953735 44.049820,249.700226 
	C44.077778,251.846436 44.667030,253.985321 45.236908,256.849335 
z"/>
<path fill="#682C5F" opacity="1.000000" stroke="none" 
	d="
M281.921661,123.041939 
	C289.577820,127.799286 297.907990,131.759811 304.716705,137.519028 
	C312.922760,144.460205 320.121674,152.678925 327.241852,160.796082 
	C337.283020,172.243225 343.876831,185.759201 348.963837,200.013092 
	C349.938599,202.744278 349.867157,205.904358 351.096802,208.475113 
	C352.650085,211.722473 354.977905,214.614441 357.089020,217.576019 
	C359.650513,221.169327 362.334503,224.675308 364.948303,229.044662 
	C364.963470,238.921738 364.995819,247.973236 365.028137,257.024719 
	C364.737091,264.342377 359.427673,268.246460 354.456696,272.279053 
	C352.206879,274.104156 351.031799,275.667816 350.829956,279.029755 
	C349.952301,293.648438 348.305908,308.220459 346.987671,322.813873 
	C346.824249,324.622955 347.102081,326.473328 346.921906,328.279236 
	C345.629364,341.233429 344.240234,354.178040 342.964691,367.133881 
	C342.754822,369.265533 343.151031,371.457977 342.928894,373.587067 
	C341.652313,385.822571 340.255798,398.045532 338.953369,410.278442 
	C338.796112,411.755402 339.109161,413.282349 338.952698,414.759491 
	C337.690674,426.673309 336.368835,438.580811 335.060486,450.489716 
	C335.042725,450.651398 334.933411,450.803345 334.917328,450.964844 
	C333.569458,464.524048 332.501282,478.118622 330.786346,491.631104 
	C329.649597,500.587891 327.586914,509.427155 325.546234,518.742065 
	C322.845032,523.036621 319.253754,526.668152 318.475494,530.826172 
	C316.391998,541.957397 309.410095,548.705933 300.328033,553.869995 
	C277.479980,566.861267 252.186279,570.620056 226.563980,571.744019 
	C208.986526,572.515198 191.224838,572.284546 173.723679,570.623840 
	C158.666183,569.195007 143.860916,565.108093 128.868622,561.857544 
	C127.187508,559.380127 127.106598,557.340881 129.568024,555.593628 
	C133.573654,556.660522 137.151138,557.936279 140.833435,558.429688 
	C157.541580,560.668335 174.279251,562.686462 191.348267,564.837769 
	C192.144196,564.966675 192.598129,565.041870 193.395996,565.338440 
	C203.472321,565.425110 213.204681,565.290405 223.362396,565.088318 
	C228.183578,564.621826 232.579437,564.222656 237.323181,563.875427 
	C238.785843,563.600952 239.900604,563.274475 241.450500,562.962463 
	C245.573288,562.600220 249.260925,562.223572 253.271576,561.866455 
	C254.401337,561.598206 255.208054,561.310364 256.432068,561.043823 
	C272.660034,558.432678 287.819550,553.813660 301.198944,544.796997 
	C304.511749,542.564453 306.516998,538.391541 309.283478,535.024170 
	C309.209412,534.869629 308.975189,534.801453 308.407928,534.830994 
	C300.675934,538.581543 293.537018,542.967224 285.814301,545.707581 
	C275.439819,549.388855 264.614471,551.799438 253.538208,554.802002 
	C244.180710,555.589111 235.280258,556.587524 226.352341,557.022400 
	C199.127380,558.348694 172.026489,557.331055 145.209106,551.951477 
	C141.812210,551.270081 138.405167,550.639282 134.724884,549.760925 
	C131.964081,548.669739 129.481232,547.802673 127.031357,546.598389 
	C128.132263,545.798584 129.166962,545.223022 130.275116,544.897278 
	C132.494446,544.245117 134.753967,543.729736 137.365356,543.131653 
	C141.435211,543.895630 145.124161,544.750305 148.840027,545.465088 
	C166.820938,548.924316 184.970917,550.615906 203.282242,550.682068 
	C211.185013,550.710632 219.135422,551.513184 226.977295,550.882996 
	C236.667328,550.104187 246.266968,548.200562 256.294128,546.737549 
	C272.270050,543.832520 287.303192,539.362122 301.022430,531.187195 
	C311.031860,525.222839 319.454498,517.792175 321.340912,505.536469 
	C323.485840,491.600922 325.342865,477.614014 326.977966,463.608948 
	C328.710999,448.764771 330.099304,433.879059 331.524170,419.000549 
	C333.439697,398.997986 335.282288,378.988190 337.085876,358.975189 
	C338.219696,346.394043 339.237427,333.802307 340.284088,321.213409 
	C341.478271,306.850128 342.646729,292.484741 343.898590,277.240753 
	C339.247803,279.343964 335.363525,281.100525 331.102722,282.825348 
	C323.162048,284.612762 315.655762,286.733917 308.023193,288.195770 
	C282.833862,293.020233 257.341644,295.070587 231.747330,296.171661 
	C205.542892,297.299011 179.379745,296.896729 153.293274,294.142273 
	C138.441986,292.574127 123.559647,291.011322 108.845123,288.532837 
	C98.098854,286.722717 87.603584,283.422607 77.038330,280.441345 
	C79.188530,278.668854 81.296837,277.241699 83.783691,275.872742 
	C93.708771,277.993256 103.177856,280.582886 112.819298,281.998779 
	C128.758102,284.339478 144.789169,286.106506 160.818100,287.758881 
	C170.850510,288.793091 180.950226,289.174500 191.470001,289.905762 
	C198.348602,289.631561 204.775055,289.094971 211.205902,289.035858 
	C216.127151,288.990631 221.053955,289.548981 226.410980,289.906006 
	C229.589066,289.579803 232.322739,289.042297 235.081848,288.817902 
	C247.471619,287.810303 259.898956,287.175720 272.253967,285.856018 
	C283.217255,284.684967 294.103088,282.788788 305.444275,281.186676 
	C321.474182,278.486725 336.573517,274.386475 350.118408,265.746521 
	C356.798584,261.485382 360.881378,254.459045 357.539062,245.751770 
	C350.834320,249.619873 344.317352,254.342102 337.076385,257.279724 
	C330.173523,260.080200 322.515625,261.019653 315.153625,262.804993 
	C315.117554,262.832672 315.176208,262.902191 315.088623,262.604126 
	C315.076752,260.969360 315.152466,259.632690 315.600647,258.213013 
	C318.493134,257.416534 321.023743,256.738098 323.531372,255.983429 
	C333.981842,252.838364 344.306793,249.443451 352.351379,240.955139 
	C359.906128,233.451248 359.917145,229.446198 352.118652,224.410461 
	C352.208771,232.222900 347.398621,236.805359 341.660217,241.092621 
	C331.880005,244.800552 322.440277,248.415131 312.593750,251.997986 
	C286.173187,258.391357 259.406525,258.777252 232.798523,261.503326 
	C225.433578,261.066772 218.243881,260.968262 210.706146,260.933655 
	C209.889618,260.959259 209.421127,260.920959 208.683914,260.689606 
	C206.960892,260.620941 205.506592,260.745300 203.611908,260.935181 
	C201.096710,260.956543 199.021881,260.912384 196.626114,260.669464 
	C193.877945,260.936401 191.450714,261.402100 188.582306,261.930603 
	C185.047531,261.603882 181.959442,261.162567 178.859451,260.833160 
	C156.955719,258.505798 134.948029,256.887268 113.177521,253.664429 
	C96.875114,251.251068 80.601059,247.650665 65.969391,238.676453 
	C64.856186,237.373688 63.872826,236.350449 63.066391,235.077316 
	C63.460033,234.576736 63.901325,234.278656 63.859913,234.082474 
	C63.201515,230.963455 67.299957,227.330872 62.861263,224.629807 
	C63.550121,223.752045 64.238983,222.874283 65.058212,222.151703 
	C65.324272,222.597290 65.548943,222.709518 66.073975,222.885559 
	C67.331635,223.396790 68.714752,224.228653 69.366371,223.838577 
	C72.301193,222.081711 74.999008,219.934586 77.839668,218.013031 
	C80.320602,216.334808 81.411041,217.756958 81.800728,220.332870 
	C78.518143,222.419388 75.340576,224.069458 72.402718,226.071289 
	C67.788574,229.215393 67.563217,231.572601 72.510414,233.789642 
	C80.763290,237.488083 89.227684,241.294449 98.005508,243.118759 
	C115.336388,246.720642 132.888824,249.413071 150.452560,251.686478 
	C163.561005,253.383209 176.831116,253.831085 190.410217,254.890167 
	C192.222992,254.672958 193.654755,254.400696 195.549042,254.103027 
	C202.979599,254.097351 209.947678,254.117081 217.205826,254.450607 
	C222.322098,254.800827 227.148285,254.837265 232.404114,254.926361 
	C235.088745,254.610123 237.331512,254.118698 239.600723,253.891846 
	C257.025024,252.149887 274.454468,250.459305 292.274933,248.690567 
	C302.623138,246.274124 312.692535,244.305542 322.489655,241.414368 
	C327.960449,239.799866 333.226288,237.060150 338.131592,234.081589 
	C343.010986,231.118713 342.932617,228.238937 338.123199,225.002487 
	C334.461914,222.538681 330.283142,220.843811 326.070923,218.548935 
	C314.986481,215.408813 304.271973,211.999130 293.315125,209.792557 
	C282.339752,207.582291 271.122437,206.573318 259.899475,204.935822 
	C259.486359,204.695999 259.221954,204.758575 258.660950,205.059448 
	C257.883942,205.043472 257.440521,204.989639 256.833252,204.734161 
	C257.506317,202.496384 258.343170,200.460251 259.400391,198.383881 
	C259.620728,198.343643 260.013153,198.559631 260.030334,198.970612 
	C260.687653,204.377914 264.852234,203.219009 267.782715,203.397659 
	C271.782867,203.641510 275.850769,202.717743 279.857758,202.921417 
	C283.362000,203.099533 286.798126,204.477188 290.307281,204.730957 
	C296.171387,205.155029 302.069702,205.105515 308.340027,205.257507 
	C313.489960,206.530396 318.253540,207.801117 323.292847,209.296173 
	C330.801147,212.993286 338.033661,216.466049 345.239319,219.925919 
	C345.151886,218.714828 345.232452,216.876343 344.859558,215.134964 
	C342.064514,202.082657 337.159546,189.846237 330.423279,178.330521 
	C317.945770,157.000046 300.155090,141.206650 278.824890,128.745850 
	C278.414276,128.353683 278.142975,128.178482 277.890930,128.050949 
	C277.935455,128.059479 277.914795,128.147766 277.853058,127.776871 
	C275.821075,126.631027 273.850830,125.856071 271.909912,125.055038 
	C271.939209,125.028961 271.933746,125.107239 271.957367,124.830368 
	C271.987305,124.368347 271.993652,124.183197 272.068542,123.686745 
	C273.235901,123.023140 274.338165,122.369621 275.432739,122.382294 
	C277.597961,122.407387 279.758942,122.800804 281.921661,123.041939 
z"/>
<path fill="#652B5C" opacity="1.000000" stroke="none" 
	d="
M82.013237,220.054153 
	C81.411041,217.756958 80.320602,216.334808 77.839668,218.013031 
	C74.999008,219.934586 72.301193,222.081711 69.366371,223.838577 
	C68.714752,224.228653 67.331635,223.396790 66.212845,222.589813 
	C77.544319,211.559601 92.182175,208.562286 106.480904,205.171204 
	C129.514633,199.708527 153.070557,197.747452 176.643326,196.549622 
	C181.852676,196.284927 183.196838,194.188522 184.209671,189.831955 
	C188.634308,170.800308 193.367371,151.840622 197.920303,132.838470 
	C199.474075,126.353584 200.828140,119.820847 202.285446,113.255936 
	C172.890060,109.782417 132.262314,125.790939 112.851379,141.910141 
	C87.446014,163.007217 70.077713,188.822952 64.927841,221.996521 
	C64.238983,222.874283 63.550121,223.752045 62.861263,224.629807 
	C67.299957,227.330872 63.201515,230.963455 63.859913,234.082474 
	C63.901325,234.278656 63.460033,234.576736 62.783718,234.854080 
	C60.612164,231.365433 58.900200,227.850098 57.219841,224.399658 
	C50.393585,229.001724 49.805672,233.944824 56.221703,239.599091 
	C58.791855,241.864090 62.008850,243.395111 65.052322,245.509888 
	C65.513321,246.191986 65.853424,246.624405 66.155174,247.416626 
	C65.961853,248.478989 65.806885,249.181549 65.325691,249.995972 
	C63.204720,249.890747 61.203552,250.102417 59.661743,249.360031 
	C57.096897,248.125076 54.826729,246.278122 52.538090,244.759003 
	C50.038666,255.481400 53.806416,263.127533 63.279209,267.600464 
	C69.821945,270.689850 76.685135,273.100555 83.405136,275.814545 
	C81.296837,277.241699 79.188530,278.668854 76.718567,280.444153 
	C75.932053,280.760071 75.507195,280.727875 74.799194,280.502594 
	C71.864746,279.273224 69.213440,278.236938 65.863426,276.927551 
	C66.293755,279.184631 66.563385,280.598816 66.785980,282.476135 
	C66.896004,286.930573 66.925034,290.931763 67.231743,294.911560 
	C68.764236,314.796631 70.443138,334.670532 71.929199,354.558929 
	C73.502579,375.615936 74.747795,396.698486 76.449028,417.744598 
	C78.095543,438.113678 80.097496,458.454651 82.028702,478.799835 
	C82.892075,487.895538 83.516487,497.047729 85.049995,506.037750 
	C87.173668,518.487610 96.031517,525.997131 106.612793,531.082825 
	C116.411736,535.792480 126.843689,539.185181 136.996887,543.157837 
	C134.753967,543.729736 132.494446,544.245117 130.275116,544.897278 
	C129.166962,545.223022 128.132263,545.798584 126.651657,546.613953 
	C116.993568,543.168762 107.748161,539.370728 98.502747,535.572693 
	C98.182358,535.825439 97.861969,536.078186 97.541573,536.330872 
	C100.173187,538.892334 102.804794,541.453796 105.623245,544.292664 
	C106.195389,544.787170 106.580696,545.004272 107.117218,545.451294 
	C107.778564,545.875671 108.288696,546.070068 109.002472,546.545654 
	C115.866791,549.698608 122.527458,552.570374 129.188126,555.442200 
	C127.106598,557.340881 127.187508,559.380127 128.473602,561.834229 
	C118.917191,557.935913 109.250946,554.431824 100.621468,549.213379 
	C96.194710,546.536377 92.268745,541.267090 90.548210,536.323059 
	C88.368599,530.059937 86.368484,524.009094 82.017372,518.930115 
	C77.467644,512.221802 77.836876,504.397766 76.990768,496.844360 
	C76.060486,488.539429 74.945877,480.252563 74.167061,471.933899 
	C73.324104,462.930054 72.849854,453.892273 72.080299,444.880768 
	C71.170364,434.225372 70.038383,423.588745 69.154999,412.931396 
	C68.642548,406.749023 68.514832,400.535492 68.057716,394.347565 
	C67.597008,388.110901 66.940788,381.888702 66.374275,375.659821 
	C65.926422,370.735596 65.387184,365.817261 65.060677,360.884918 
	C64.395912,350.842529 64.018616,340.778564 63.204174,330.749359 
	C62.338840,320.093384 60.984436,309.477631 60.076759,298.824432 
	C59.544373,292.575897 59.726070,286.260834 59.058491,280.032288 
	C58.786228,277.492065 57.794098,274.210541 55.954342,272.810303 
	C50.450089,268.621002 45.921238,264.126190 45.180618,256.015350 
	C45.045235,246.470825 44.966137,237.760284 44.887039,229.049744 
	C47.565365,222.751587 51.025642,217.186096 57.746483,214.359467 
	C58.475826,214.052719 58.701912,212.449707 59.077549,211.417450 
	C61.967155,203.476959 64.626320,195.445038 67.762016,187.603470 
	C72.124481,176.694016 78.469215,166.844452 86.383125,158.271286 
	C94.006676,150.012665 102.412750,142.459885 110.668625,134.805847 
	C120.183304,125.984787 131.773636,120.283897 143.675323,115.911728 
	C155.470261,111.578758 167.918335,108.857796 180.246201,106.201439 
	C188.088501,104.511620 196.233902,104.228439 204.701614,103.262222 
	C207.833557,90.558380 211.058884,77.475746 214.901489,64.305641 
	C217.280380,64.804512 219.041992,65.390854 220.699463,66.338982 
	C208.024216,118.723930 195.453156,170.747086 182.761826,223.267914 
	C194.387070,226.513931 205.643738,226.951340 217.470490,225.126038 
	C219.527740,224.919601 221.162476,224.673401 222.804108,224.488327 
	C228.263519,223.872833 231.194717,221.163773 232.009308,215.405243 
	C232.888474,209.190231 234.844421,203.132584 236.225143,196.982605 
	C243.603699,164.117401 250.919693,131.238129 258.322968,98.378502 
	C260.760193,87.560822 263.393677,76.787354 266.293610,65.930237 
	C268.815521,64.914490 270.981262,63.962173 273.146973,63.009857 
	C270.323334,76.117493 267.478729,89.220673 264.691406,102.336021 
	C264.033508,105.431679 263.128815,108.581871 263.224731,111.679512 
	C263.264587,112.967232 265.437286,114.538422 266.971710,115.365273 
	C271.712341,117.919868 276.612610,120.178223 281.686279,122.796768 
	C279.758942,122.800804 277.597961,122.407387 275.432739,122.382294 
	C274.338165,122.369621 273.235901,123.023140 271.718414,123.690002 
	C270.832214,124.027481 270.364746,124.050407 269.933105,124.076157 
	C269.968994,124.078979 269.928528,124.138489 269.808411,123.783035 
	C268.320892,122.999428 266.953552,122.571266 265.419678,122.171524 
	C265.253204,122.199944 264.922211,122.267403 264.576660,122.129478 
	C262.999451,121.751152 261.767792,121.510757 260.289185,121.222153 
	C254.552185,146.900818 248.896988,172.213303 243.251434,197.482605 
	C249.310699,197.840744 254.245377,198.132431 259.180054,198.424103 
	C258.343170,200.460251 257.506317,202.496384 256.404449,204.777802 
	C253.148483,204.877686 250.157516,204.732285 246.999268,204.323944 
	C245.882385,204.165680 244.932770,204.270325 243.603760,204.498825 
	C242.111511,207.412033 240.998672,210.201416 239.662857,213.291702 
	C238.976868,215.331650 238.211395,217.052032 238.102783,218.812912 
	C237.613739,226.742279 232.289398,229.781052 225.579178,231.211975 
	C221.093399,232.168518 216.497925,232.610626 211.549194,233.260529 
	C197.989929,234.268860 185.305710,232.106613 173.104538,227.249573 
	C171.627411,226.661575 170.740921,224.589859 169.580704,223.205780 
	C171.018448,222.137878 172.419144,221.014572 173.906204,220.020462 
	C175.000504,219.288910 176.969650,218.951202 177.235519,218.050354 
	C178.530182,213.663635 179.382782,209.146454 180.631424,203.613846 
	C169.616028,204.256531 159.500687,204.531921 149.451492,205.496628 
	C126.420914,207.707565 103.784355,211.923157 82.013237,220.054153 
z"/>
<path fill="#F4AEDB" opacity="1.000000" stroke="none" 
	d="
M81.663055,519.054382 
	C86.368484,524.009094 88.368599,530.059937 90.548210,536.323059 
	C92.268745,541.267090 96.194710,546.536377 100.621468,549.213379 
	C109.250946,554.431824 118.917191,557.935913 128.549103,562.173218 
	C143.860916,565.108093 158.666183,569.195007 173.723679,570.623840 
	C191.224838,572.284546 208.986526,572.515198 226.563980,571.744019 
	C252.186279,570.620056 277.479980,566.861267 300.328033,553.869995 
	C309.410095,548.705933 316.391998,541.957397 318.475494,530.826172 
	C319.253754,526.668152 322.845032,523.036621 325.493652,519.145630 
	C330.480042,521.494019 335.554260,523.285217 339.684204,526.349243 
	C348.350433,532.778809 346.869598,545.329346 337.548370,550.901550 
	C327.008820,557.202026 315.905090,562.308777 304.099854,565.306519 
	C290.237274,568.826782 276.007446,570.872192 262.050568,574.055725 
	C235.121567,580.198059 207.811478,577.652954 180.649353,577.794434 
	C171.303467,577.843140 161.939117,575.566223 152.594315,574.271362 
	C142.649506,572.893250 132.652588,571.761230 122.801964,569.876038 
	C115.438057,568.466797 108.248459,566.108826 101.020271,564.037170 
	C90.236031,560.946167 79.791885,557.027161 70.341591,550.820923 
	C64.169701,546.767639 60.253513,538.689270 63.329220,532.283020 
	C65.349640,528.074768 70.316025,525.140747 74.301750,522.076477 
	C76.236511,520.589050 78.948578,520.112732 81.663055,519.054382 
z"/>
<path fill="#5B2151" opacity="1.000000" stroke="none" 
	d="
M273.387909,62.770660 
	C270.981262,63.962173 268.815521,64.914490 266.318329,65.513580 
	C266.440247,61.943771 266.893646,58.727200 267.367859,55.363022 
	C263.420135,55.651581 259.692841,55.924030 255.559204,56.127953 
	C244.828171,54.487789 235.031784,51.482296 226.364166,44.699139 
	C224.388153,52.260567 222.595901,59.118881 220.803619,65.977196 
	C219.041992,65.390854 217.280380,64.804512 215.201233,64.061722 
	C215.292084,61.498589 215.546585,59.053307 216.138733,56.692715 
	C217.683853,50.533028 219.390961,44.414139 221.007065,38.272030 
	C222.759888,31.610340 227.110458,28.393183 234.121140,28.081352 
	C245.673203,27.567524 256.593658,29.895075 266.928680,34.960865 
	C275.932678,39.374241 278.828156,46.419884 275.734619,55.827572 
	C275.002991,58.052437 274.329224,60.296329 273.387909,62.770660 
M246.646805,48.044762 
	C252.231308,48.639050 257.809998,49.551456 263.403473,49.653633 
	C265.339569,49.689003 267.312408,47.712250 269.268463,46.654575 
	C267.823273,44.770748 266.775238,42.057892 264.865784,41.143078 
	C255.355133,36.586563 245.402802,33.277695 234.640884,34.114929 
	C232.806351,34.257648 231.087326,35.885269 229.314941,36.826897 
	C230.302368,38.449265 230.905899,40.763184 232.349167,41.564331 
	C236.678787,43.967659 241.336288,45.780258 246.646805,48.044762 
z"/>
<path fill="#FFDAF9" opacity="1.000000" stroke="none" 
	d="
M365.425476,256.836670 
	C364.995819,247.973236 364.963470,238.921738 364.965576,229.397995 
	C365.334137,230.742813 365.941162,232.557892 365.954590,234.377335 
	C366.009430,241.800385 365.882660,249.224762 365.425476,256.836670 
z"/>
<path fill="#FFD5F6" opacity="1.000000" stroke="none" 
	d="
M44.506752,229.253021 
	C44.966137,237.760284 45.045235,246.470825 45.061882,255.654465 
	C44.667030,253.985321 44.077778,251.846436 44.049820,249.700226 
	C43.961926,242.953735 44.085049,236.204483 44.506752,229.253021 
z"/>
<path fill="#C481C0" opacity="1.000000" stroke="none" 
	d="
M247.166534,204.586884 
	C250.157516,204.732285 253.148483,204.877686 256.568298,204.979446 
	C257.440521,204.989639 257.883942,205.043472 258.914429,205.106018 
	C259.671356,205.089081 259.841278,205.063446 260.011169,205.037811 
	C271.122437,206.573318 282.339752,207.582291 293.315125,209.792557 
	C304.271973,211.999130 314.986481,215.408813 325.793182,218.874969 
	C325.526062,220.568222 324.929047,221.725449 325.075836,222.779068 
	C326.022949,229.577713 322.725952,233.979324 316.962524,236.590073 
	C309.478058,239.980392 301.775360,242.886581 294.229736,246.147293 
	C293.254150,246.568909 292.655548,247.862900 291.882294,248.752777 
	C274.454468,250.459305 257.025024,252.149887 239.600723,253.891846 
	C237.331512,254.118698 235.088745,254.610123 232.237808,254.582657 
	C226.733170,254.169815 221.824448,254.153320 216.915741,254.136810 
	C209.947678,254.117081 202.979599,254.097351 195.280762,253.878571 
	C193.043060,254.064713 191.536148,254.449905 190.029236,254.835114 
	C176.831116,253.831085 163.561005,253.383209 150.452560,251.686478 
	C132.888824,249.413071 115.336388,246.720642 98.005508,243.118759 
	C89.227684,241.294449 80.763290,237.488083 72.510414,233.789642 
	C67.563217,231.572601 67.788574,229.215393 72.402718,226.071289 
	C75.340576,224.069458 78.518143,222.419388 81.800728,220.332870 
	C103.784355,211.923157 126.420914,207.707565 149.451492,205.496628 
	C159.500687,204.531921 169.616028,204.256531 180.631424,203.613846 
	C179.382782,209.146454 178.530182,213.663635 177.235519,218.050354 
	C176.969650,218.951202 175.000504,219.288910 173.906204,220.020462 
	C172.419144,221.014572 171.018448,222.137878 169.580704,223.205780 
	C170.740921,224.589859 171.627411,226.661575 173.104538,227.249573 
	C185.305710,232.106613 197.989929,234.268860 211.749435,233.581390 
	C220.371750,233.827820 228.486923,234.450378 236.380463,233.402847 
	C242.519333,232.588181 248.567352,230.099899 254.270264,227.507431 
	C256.361176,226.556931 258.644043,223.055237 258.458588,220.924530 
	C258.280609,218.879883 255.332306,216.195007 253.044952,215.407257 
	C248.875671,213.971359 244.294907,213.730331 239.885818,212.990784 
	C240.998672,210.201416 242.111511,207.412033 243.901810,204.634415 
	C245.441681,204.626404 246.304108,204.606644 247.166534,204.586884 
M249.626328,242.957458 
	C250.670792,242.032745 252.059967,241.266159 252.592056,240.106384 
	C252.808411,239.634766 251.142990,237.528885 250.366928,237.547531 
	C249.095779,237.578018 247.851730,238.736954 246.596268,239.419937 
	C247.353088,240.580490 248.109909,241.741043 249.626328,242.957458 
M273.873596,224.523392 
	C273.642151,223.101440 273.410706,221.679474 273.179291,220.257523 
	C271.893188,221.019302 270.607056,221.781082 269.320953,222.542862 
	C270.603424,223.298615 271.885895,224.054382 273.873596,224.523392 
z"/>
<path fill="#D0D0EA" opacity="1.000000" stroke="none" 
	d="
M65.058212,222.151703 
	C70.077713,188.822952 87.446014,163.007217 112.851379,141.910141 
	C132.262314,125.790939 172.890060,109.782417 202.285446,113.255936 
	C200.828140,119.820847 199.474075,126.353584 197.920303,132.838470 
	C193.367371,151.840622 188.634308,170.800308 184.209671,189.831955 
	C183.196838,194.188522 181.852676,196.284927 176.643326,196.549622 
	C153.070557,197.747452 129.514633,199.708527 106.480904,205.171204 
	C92.182175,208.562286 77.544319,211.559601 66.001488,222.347809 
	C65.548943,222.709518 65.324272,222.597290 65.058212,222.151703 
M116.031937,151.512390 
	C110.227219,157.641296 103.680878,163.240707 98.822670,170.045364 
	C93.785416,177.100815 90.111603,185.199249 86.476402,193.132462 
	C85.666901,194.899094 87.509850,197.881119 88.131554,200.303543 
	C90.511986,199.616028 93.509369,199.604004 95.149574,198.105988 
	C99.045395,194.547882 102.400139,190.370377 105.787445,186.288742 
	C110.872635,180.161179 115.098770,173.118744 120.956459,167.881622 
	C129.708954,160.056412 139.687958,153.619003 148.869858,146.248230 
	C151.573654,144.077759 156.553543,141.932785 154.191788,137.353943 
	C152.004471,133.113251 147.426346,135.007767 143.797684,135.874969 
	C133.324677,138.377838 124.835396,144.528259 116.031937,151.512390 
M167.226700,123.507744 
	C166.462509,123.825989 165.502472,123.954216 164.972885,124.500069 
	C163.671005,125.841949 162.567215,127.376022 161.383759,128.832794 
	C163.268890,129.291489 165.141678,129.816956 167.046417,130.169724 
	C167.647293,130.281006 168.482666,130.121506 168.954117,129.755447 
	C170.578354,128.494385 172.089188,127.087227 173.643219,125.735733 
	C171.757095,124.914398 169.870956,124.093063 167.226700,123.507744 
M120.799118,190.907959 
	C122.407539,190.613129 124.015953,190.318314 125.624374,190.023483 
	C124.993332,189.005646 124.362297,187.987823 123.731262,186.969986 
	C122.631790,188.086395 121.532326,189.202805 120.799118,190.907959 
z"/>
<path fill="#BB7DBB" opacity="1.000000" stroke="none" 
	d="
M75.082344,280.695679 
	C75.507195,280.727875 75.932053,280.760071 76.676666,280.789490 
	C87.603584,283.422607 98.098854,286.722717 108.845123,288.532837 
	C123.559647,291.011322 138.441986,292.574127 153.293274,294.142273 
	C179.379745,296.896729 205.542892,297.299011 231.747330,296.171661 
	C257.341644,295.070587 282.833862,293.020233 308.023193,288.195770 
	C315.655762,286.733917 323.162048,284.612762 331.455475,282.950317 
	C333.120117,283.400482 334.055481,283.693909 334.995575,283.993652 
	C335.000305,284.000000 335.013428,284.009338 334.997040,284.377533 
	C334.892883,287.226990 334.902924,289.716248 334.700409,292.188080 
	C333.833984,302.763763 332.900146,313.333893 332.000061,323.906830 
	C331.226135,332.997772 330.513275,342.094208 329.685852,351.180237 
	C328.498047,364.223999 327.143677,377.253113 326.025482,390.302582 
	C325.175690,400.219513 324.839813,410.184784 323.824829,420.082336 
	C321.371674,444.004456 317.883545,467.847961 316.281097,491.821320 
	C314.925507,512.101624 303.464386,523.718750 286.369293,530.811401 
	C276.333313,534.975220 265.431976,537.053345 254.509216,540.089905 
	C243.734436,541.073730 233.354156,542.982483 223.009567,542.805359 
	C201.029251,542.429077 179.067520,540.967773 157.432190,539.725464 
	C167.190826,539.005737 176.619583,538.579895 186.039062,538.002441 
	C201.747498,537.039490 217.450012,535.979248 233.534698,534.994141 
	C242.713013,538.881409 249.808624,535.111572 256.854828,529.825195 
	C257.408478,529.438843 257.703156,529.188416 257.921753,528.986450 
	C257.845703,529.034912 257.723389,528.902344 258.142792,528.922913 
	C264.453491,526.888123 270.484314,525.159058 276.207794,522.711365 
	C289.181366,517.162964 298.089417,507.680267 300.980713,493.684845 
	C302.918182,484.306519 303.915649,474.707001 304.852600,465.159210 
	C305.408661,459.492584 305.030640,453.734222 305.196655,447.683716 
	C309.012909,441.188751 310.046814,434.762939 307.576294,427.779724 
	C308.598419,422.741150 309.532318,417.899139 309.941132,413.013184 
	C311.117859,398.949860 312.206024,384.876617 313.102020,370.792877 
	C314.504303,348.751129 315.629211,326.691650 317.063080,304.652130 
	C317.588409,296.578033 313.809631,295.285156 307.333527,295.675568 
	C296.078735,296.354004 284.898071,298.185120 273.665039,299.322418 
	C260.457153,300.659668 247.228241,302.751617 234.005417,302.774506 
	C208.237915,302.819153 182.443741,302.124847 156.709610,300.791107 
	C143.192719,300.090515 129.681061,297.921387 116.346489,295.447937 
	C102.486275,292.876953 88.842476,289.139252 75.080658,285.683960 
	C75.057289,285.456085 74.993736,285.002380 75.168777,284.746765 
	C75.256660,283.226013 75.169502,281.960846 75.082344,280.695679 
z"/>
<path fill="#C8B1DB" opacity="1.000000" stroke="none" 
	d="
M83.783691,275.872742 
	C76.685135,273.100555 69.821945,270.689850 63.279209,267.600464 
	C53.806416,263.127533 50.038666,255.481400 52.538090,244.759003 
	C54.826729,246.278122 57.096897,248.125076 59.661743,249.360031 
	C61.203552,250.102417 63.204720,249.890747 65.613953,250.213654 
	C69.431419,252.023697 72.475670,254.188461 75.863579,255.355957 
	C95.118813,261.991394 115.043945,265.442108 135.184296,268.288666 
	C159.281311,271.694427 183.444962,272.978271 207.711960,272.930725 
	C220.840851,272.904968 233.980103,272.559235 247.092957,271.915558 
	C255.864059,271.485016 264.635681,270.556519 273.338165,269.352661 
	C287.314178,267.419281 301.233124,265.073639 315.176208,262.902222 
	C315.176208,262.902191 315.117554,262.832672 315.095642,263.185883 
	C313.464874,266.561523 311.920166,269.620422 310.228912,272.596008 
	C308.571259,275.512360 306.764435,278.343903 305.023132,281.212677 
	C294.103088,282.788788 283.217255,284.684967 272.253967,285.856018 
	C259.898956,287.175720 247.471619,287.810303 235.081848,288.817902 
	C232.322739,289.042297 229.589066,289.579803 226.238968,289.565216 
	C224.924774,288.794403 224.218002,288.121552 223.505432,288.115417 
	C213.741364,288.030823 203.975769,287.981750 194.212799,288.103424 
	C193.141342,288.116760 192.083755,289.240234 191.019730,289.848816 
	C180.950226,289.174500 170.850510,288.793091 160.818100,287.758881 
	C144.789169,286.106506 128.758102,284.339478 112.819298,281.998779 
	C103.177856,280.582886 93.708771,277.993256 83.783691,275.872742 
M78.282654,263.162903 
	C78.623085,263.916290 78.794342,265.165039 79.329651,265.347839 
	C85.989937,267.622467 92.669296,269.865448 99.450676,271.727051 
	C100.198143,271.932220 102.439735,269.757111 102.482307,268.629120 
	C102.527252,267.438354 101.002670,265.496429 99.756409,265.068237 
	C94.258278,263.179199 88.660713,261.500702 82.986832,260.259460 
	C81.631912,259.963074 79.844925,261.641754 78.282654,263.162903 
M116.793488,273.910065 
	C118.343216,274.268158 119.967781,275.084381 121.420258,274.847137 
	C122.705879,274.637115 123.799995,273.254730 124.978661,272.389893 
	C123.999054,271.096252 123.284554,269.185364 121.988434,268.628723 
	C118.569717,267.160522 116.642250,268.919769 116.793488,273.910065 
z"/>
<path fill="#CFD0EA" opacity="1.000000" stroke="none" 
	d="
M259.400391,198.383881 
	C254.245377,198.132431 249.310699,197.840744 243.251434,197.482605 
	C248.896988,172.213303 254.552185,146.900818 260.289185,121.222153 
	C261.767792,121.510757 262.999451,121.751152 264.414429,122.303589 
	C265.169708,123.482544 265.560638,124.589722 266.342102,125.178665 
	C273.094971,130.267853 280.720917,134.481766 286.543762,140.459473 
	C296.857727,151.047729 305.763824,162.919815 312.508057,176.235291 
	C317.769440,186.623077 323.581726,196.824005 323.017090,209.071838 
	C318.253540,207.801117 313.489960,206.530396 307.949524,205.148102 
	C303.446930,204.318863 299.746735,203.402863 295.990845,202.920074 
	C284.009399,201.380020 272.007294,200.000916 260.013153,198.559631 
	C260.013153,198.559631 259.620728,198.343643 259.400391,198.383881 
M298.309540,186.550339 
	C297.304871,187.678604 296.300201,188.806870 295.295563,189.935150 
	C296.328888,190.448288 297.362244,190.961426 298.395569,191.474564 
	C298.574188,189.940994 298.752808,188.407425 298.309540,186.550339 
z"/>
<path fill="#D4A5D5" opacity="1.000000" stroke="none" 
	d="
M157.098160,539.951172 
	C179.067520,540.967773 201.029251,542.429077 223.009567,542.805359 
	C233.354156,542.982483 243.734436,541.073730 254.380066,540.412476 
	C255.076279,542.737488 255.490967,544.760193 255.905670,546.782959 
	C246.266968,548.200562 236.667328,550.104187 226.977295,550.882996 
	C219.135422,551.513184 211.185013,550.710632 203.282242,550.682068 
	C184.970917,550.615906 166.820938,548.924316 148.840027,545.465088 
	C145.124161,544.750305 141.435211,543.895630 137.365356,543.131653 
	C126.843689,539.185181 116.411736,535.792480 106.612793,531.082825 
	C96.031517,525.997131 87.173668,518.487610 85.049995,506.037750 
	C83.516487,497.047729 82.892075,487.895538 82.028702,478.799835 
	C80.097496,458.454651 78.095543,438.113678 76.449028,417.744598 
	C74.747795,396.698486 73.502579,375.615936 71.929199,354.558929 
	C70.443138,334.670532 68.764236,314.796631 67.231743,294.911560 
	C66.925034,290.931763 66.896004,286.930573 67.146011,282.539368 
	C70.033295,283.093781 72.513512,284.048096 74.993736,285.002380 
	C74.993736,285.002380 75.057289,285.456085 75.081192,286.113098 
	C76.070419,300.009338 77.057976,313.246948 77.994019,326.488251 
	C78.743225,337.086639 79.385796,347.692627 80.154228,358.289520 
	C81.402351,375.501373 82.695213,392.710052 84.006149,409.917236 
	C85.040077,423.488525 85.858757,437.083679 87.265419,450.617035 
	C88.895042,466.295380 91.178963,481.904572 92.964622,497.568176 
	C94.702217,512.810059 103.182487,523.521301 116.826263,528.778564 
	C129.764282,533.763855 143.636673,536.324341 157.098160,539.951172 
z"/>
<path fill="#C68DC5" opacity="1.000000" stroke="none" 
	d="
M256.294128,546.737549 
	C255.490967,544.760193 255.076279,542.737488 254.790741,540.392151 
	C265.431976,537.053345 276.333313,534.975220 286.369293,530.811401 
	C303.464386,523.718750 314.925507,512.101624 316.281097,491.821320 
	C317.883545,467.847961 321.371674,444.004456 323.824829,420.082336 
	C324.839813,410.184784 325.175690,400.219513 326.025482,390.302582 
	C327.143677,377.253113 328.498047,364.223999 329.685852,351.180237 
	C330.513275,342.094208 331.226135,332.997772 332.000061,323.906830 
	C332.900146,313.333893 333.833984,302.763763 334.700409,292.188080 
	C334.902924,289.716248 334.892883,287.226990 335.063293,284.340576 
	C335.145935,283.935394 335.152679,283.754700 335.152679,283.754700 
	C335.152679,283.754700 334.990845,283.987335 334.990845,283.987335 
	C334.055481,283.693909 333.120117,283.400482 331.832001,282.982056 
	C335.363525,281.100525 339.247803,279.343964 343.898590,277.240753 
	C342.646729,292.484741 341.478271,306.850128 340.284088,321.213409 
	C339.237427,333.802307 338.219696,346.394043 337.085876,358.975189 
	C335.282288,378.988190 333.439697,398.997986 331.524170,419.000549 
	C330.099304,433.879059 328.710999,448.764771 326.977966,463.608948 
	C325.342865,477.614014 323.485840,491.600922 321.340912,505.536469 
	C319.454498,517.792175 311.031860,525.222839 301.022430,531.187195 
	C287.303192,539.362122 272.270050,543.832520 256.294128,546.737549 
z"/>
<path fill="#D6CBEB" opacity="1.000000" stroke="none" 
	d="
M315.088623,262.604126 
	C301.233124,265.073639 287.314178,267.419281 273.338165,269.352661 
	C264.635681,270.556519 255.864059,271.485016 247.092957,271.915558 
	C233.980103,272.559235 220.840851,272.904968 207.711960,272.930725 
	C183.444962,272.978271 159.281311,271.694427 135.184296,268.288666 
	C115.043945,265.442108 95.118813,261.991394 75.863579,255.355957 
	C72.475670,254.188461 69.431419,252.023697 65.940186,250.101807 
	C65.806885,249.181549 65.961853,248.478989 66.509506,247.477890 
	C68.164536,247.596115 69.436882,247.985031 70.687782,248.433731 
	C98.592560,258.443359 127.496574,263.235657 157.308258,265.123779 
	C158.785461,265.478760 159.940475,265.685577 161.532608,265.922058 
	C164.312714,265.950195 166.655685,265.948639 169.429504,265.978485 
	C173.158981,266.317902 176.464310,266.950439 179.755203,266.882690 
	C206.787231,266.326355 233.855698,266.309387 260.831696,264.734467 
	C276.302826,263.831268 291.622559,260.334930 307.412933,258.009888 
	C310.286316,258.107849 312.757233,258.201935 315.228149,258.296021 
	C315.152466,259.632690 315.076752,260.969360 315.088623,262.604126 
z"/>
<path fill="#C1C1E1" opacity="1.000000" stroke="none" 
	d="
M323.292847,209.296173 
	C323.581726,196.824005 317.769440,186.623077 312.508057,176.235291 
	C305.763824,162.919815 296.857727,151.047729 286.543762,140.459473 
	C280.720917,134.481766 273.094971,130.267853 266.342102,125.178665 
	C265.560638,124.589722 265.169708,123.482544 264.759979,122.441513 
	C264.922211,122.267403 265.253204,122.199944 265.626495,122.455521 
	C267.309357,123.186897 268.618958,123.662697 269.928528,124.138489 
	C269.928528,124.138489 269.968994,124.078979 270.078064,124.347046 
	C270.769348,124.779152 271.351562,124.943192 271.933746,125.107239 
	C271.933746,125.107239 271.939209,125.028961 272.137634,125.310043 
	C274.195618,126.443336 276.055206,127.295555 277.914795,128.147766 
	C277.914795,128.147766 277.935455,128.059479 277.992737,128.298233 
	C278.363190,128.665894 278.676361,128.794800 278.989502,128.923706 
	C300.155090,141.206650 317.945770,157.000046 330.423279,178.330521 
	C337.159546,189.846237 342.064514,202.082657 344.859558,215.134964 
	C345.232452,216.876343 345.151886,218.714828 345.239319,219.925919 
	C338.033661,216.466049 330.801147,212.993286 323.292847,209.296173 
z"/>
<path fill="#CB90C8" opacity="1.000000" stroke="none" 
	d="
M129.568024,555.593628 
	C122.527458,552.570374 115.866791,549.698608 109.277359,546.288818 
	C111.695259,546.078674 114.106880,546.167236 116.375244,546.783264 
	C121.290413,548.117981 126.096748,549.862793 131.030472,551.112854 
	C132.185196,551.405457 133.669922,550.395630 135.002838,549.985046 
	C138.405167,550.639282 141.812210,551.270081 145.209106,551.951477 
	C172.026489,557.331055 199.127380,558.348694 226.352341,557.022400 
	C235.280258,556.587524 244.180710,555.589111 253.539963,555.202393 
	C254.662399,557.378418 255.338593,559.200439 256.014771,561.022461 
	C255.208054,561.310364 254.401337,561.598206 253.100204,561.610107 
	C248.365723,559.167419 244.643997,560.723450 241.015366,562.947998 
	C239.900604,563.274475 238.785843,563.600952 237.157135,563.541992 
	C230.328720,560.967957 224.357559,562.371033 218.276352,564.958801 
	C217.613373,564.979370 217.167252,564.932495 216.389359,564.537231 
	C207.576294,563.850891 199.094986,563.512939 190.613693,563.174988 
	C190.744553,563.711304 190.875427,564.247620 191.006302,564.783936 
	C174.279251,562.686462 157.541580,560.668335 140.833435,558.429688 
	C137.151138,557.936279 133.573654,556.660522 129.568024,555.593628 
z"/>
<path fill="#C390C6" opacity="1.000000" stroke="none" 
	d="
M168.998672,265.947083 
	C166.655685,265.948639 164.312714,265.950195 161.816605,265.730774 
	C163.236679,265.229492 164.809875,264.949127 166.383072,264.668762 
	C163.431915,263.570892 160.436279,263.276489 157.433563,263.109222 
	C157.319397,263.102844 157.136765,264.325592 156.986038,264.975586 
	C127.496574,263.235657 98.592560,258.443359 70.687782,248.433731 
	C69.436882,247.985031 68.164536,247.596115 66.547852,247.118088 
	C65.853424,246.624405 65.513321,246.191986 65.075790,245.089386 
	C65.351982,242.598145 65.725616,240.777069 66.099243,238.955994 
	C80.601059,247.650665 96.875114,251.251068 113.177521,253.664429 
	C134.948029,256.887268 156.955719,258.505798 178.859451,260.833160 
	C181.959442,261.162567 185.047531,261.603882 188.982895,261.980988 
	C192.198792,261.601807 194.572937,261.235016 196.947067,260.868225 
	C199.021881,260.912384 201.096710,260.956543 204.018539,260.981842 
	C206.227921,260.936188 207.590271,260.909424 208.952637,260.882629 
	C209.421127,260.920959 209.889618,260.959259 211.139435,260.979553 
	C216.617493,261.364075 221.314209,261.766602 225.827393,262.505188 
	C223.766434,263.226990 221.890961,263.936005 220.011246,263.947418 
	C204.889435,264.039398 189.766129,263.932068 174.645340,264.086609 
	C172.756973,264.105896 170.880600,265.298248 168.998672,265.947083 
z"/>
<path fill="#BBAFD6" opacity="1.000000" stroke="none" 
	d="
M305.444275,281.186676 
	C306.764435,278.343903 308.571259,275.512360 310.228912,272.596008 
	C311.920166,269.620422 313.464874,266.561523 315.131714,263.158203 
	C322.515625,261.019653 330.173523,260.080200 337.076385,257.279724 
	C344.317352,254.342102 350.834320,249.619873 357.539062,245.751770 
	C360.881378,254.459045 356.798584,261.485382 350.118408,265.746521 
	C336.573517,274.386475 321.474182,278.486725 305.444275,281.186676 
z"/>
<path fill="#C698CB" opacity="1.000000" stroke="none" 
	d="
M169.429504,265.978485 
	C170.880600,265.298248 172.756973,264.105896 174.645340,264.086609 
	C189.766129,263.932068 204.889435,264.039398 220.011246,263.947418 
	C221.890961,263.936005 223.766434,263.226990 226.259827,262.447754 
	C228.908432,261.983307 230.941101,261.912323 232.973755,261.841339 
	C259.406525,258.777252 286.173187,258.391357 312.525513,252.341660 
	C310.912811,254.480026 308.961639,256.243011 307.010468,258.005981 
	C291.622559,260.334930 276.302826,263.831268 260.831696,264.734467 
	C233.855698,266.309387 206.787231,266.326355 179.755203,266.882690 
	C176.464310,266.950439 173.158981,266.317902 169.429504,265.978485 
z"/>
<path fill="#BA76B6" opacity="1.000000" stroke="none" 
	d="
M292.274933,248.690552 
	C292.655548,247.862900 293.254150,246.568909 294.229736,246.147293 
	C301.775360,242.886581 309.478058,239.980392 316.962524,236.590073 
	C322.725952,233.979324 326.022949,229.577713 325.075836,222.779068 
	C324.929047,221.725449 325.526062,220.568222 326.056885,219.132874 
	C330.283142,220.843811 334.461914,222.538681 338.123199,225.002487 
	C342.932617,228.238937 343.010986,231.118713 338.131592,234.081589 
	C333.226288,237.060150 327.960449,239.799866 322.489655,241.414368 
	C312.692535,244.305542 302.623138,246.274124 292.274933,248.690552 
z"/>
<path fill="#BA7EB9" opacity="1.000000" stroke="none" 
	d="
M256.432068,561.043823 
	C255.338593,559.200439 254.662399,557.378418 253.984451,555.155945 
	C264.614471,551.799438 275.439819,549.388855 285.814301,545.707581 
	C293.537018,542.967224 300.675934,538.581543 308.503204,534.925598 
	C308.931519,534.922546 309.123291,535.110535 309.123291,535.110535 
	C306.516998,538.391541 304.511749,542.564453 301.198944,544.796997 
	C287.819550,553.813660 272.660034,558.432678 256.432068,561.043823 
z"/>
<path fill="#B9A7CF" opacity="1.000000" stroke="none" 
	d="
M307.412933,258.009888 
	C308.961639,256.243011 310.912811,254.480026 312.932281,252.373383 
	C322.440277,248.415131 331.880005,244.800552 341.761414,241.357819 
	C345.480194,241.381531 348.757294,241.233398 352.034363,241.085266 
	C344.306793,249.443451 333.981842,252.838364 323.531372,255.983429 
	C321.023743,256.738098 318.493134,257.416534 315.600647,258.213013 
	C312.757233,258.201935 310.286316,258.107849 307.412933,258.009888 
z"/>
<path fill="#CBACD7" opacity="1.000000" stroke="none" 
	d="
M65.969391,238.676453 
	C65.725616,240.777069 65.351982,242.598145 64.954887,244.839722 
	C62.008850,243.395111 58.791855,241.864090 56.221703,239.599091 
	C49.805672,233.944824 50.393585,229.001724 57.219841,224.399658 
	C58.900200,227.850098 60.612164,231.365433 62.606796,235.103989 
	C63.872826,236.350449 64.856186,237.373688 65.969391,238.676453 
z"/>
<path fill="#BA7FB7" opacity="1.000000" stroke="none" 
	d="
M134.724884,549.760925 
	C133.669922,550.395630 132.185196,551.405457 131.030472,551.112854 
	C126.096748,549.862793 121.290413,548.117981 116.375244,546.783264 
	C114.106880,546.167236 111.695259,546.078674 109.073715,546.007690 
	C108.288696,546.070068 107.778564,545.875671 106.905632,545.200806 
	C106.174026,544.485291 105.805222,544.250244 105.436417,544.015259 
	C102.804794,541.453796 100.173187,538.892334 97.541573,536.330872 
	C97.861969,536.078186 98.182358,535.825439 98.502747,535.572693 
	C107.748161,539.370728 116.993568,543.168762 126.618683,546.951172 
	C129.481232,547.802673 131.964081,548.669739 134.724884,549.760925 
z"/>
<path fill="#652B5C" opacity="1.000000" stroke="none" 
	d="
M260.030334,198.970612 
	C272.007294,200.000916 284.009399,201.380020 295.990845,202.920074 
	C299.746735,203.402863 303.446930,204.318863 307.563110,205.145950 
	C302.069702,205.105515 296.171387,205.155029 290.307281,204.730957 
	C286.798126,204.477188 283.362000,203.099533 279.857758,202.921417 
	C275.850769,202.717743 271.782867,203.641510 267.782715,203.397659 
	C264.852234,203.219009 260.687653,204.377914 260.030334,198.970612 
z"/>
<path fill="#C1B5D9" opacity="1.000000" stroke="none" 
	d="
M352.351379,240.955139 
	C348.757294,241.233398 345.480194,241.381531 342.101898,241.264465 
	C347.398621,236.805359 352.208771,232.222900 352.118652,224.410461 
	C359.917145,229.446198 359.906128,233.451248 352.351379,240.955139 
z"/>
<path fill="#DEBFEB" opacity="1.000000" stroke="none" 
	d="
M191.470001,289.905762 
	C192.083755,289.240234 193.141342,288.116760 194.212799,288.103424 
	C203.975769,287.981750 213.741364,288.030823 223.505432,288.115417 
	C224.218002,288.121552 224.924774,288.794403 225.806274,289.498047 
	C221.053955,289.548981 216.127151,288.990631 211.205902,289.035858 
	C204.775055,289.094971 198.348602,289.631561 191.470001,289.905762 
z"/>
<path fill="#DDAEDE" opacity="1.000000" stroke="none" 
	d="
M191.348267,564.837769 
	C190.875427,564.247620 190.744553,563.711304 190.613693,563.174988 
	C199.094986,563.512939 207.576294,563.850891 215.936829,564.583496 
	C208.228073,565.024536 200.640060,565.070801 193.052063,565.117065 
	C192.598129,565.041870 192.144196,564.966675 191.348267,564.837769 
z"/>
<path fill="#571C54" opacity="1.000000" stroke="none" 
	d="
M232.798523,261.503326 
	C230.941101,261.912323 228.908432,261.983307 226.443359,262.111694 
	C221.314209,261.766602 216.617493,261.364075 211.487488,260.915649 
	C218.243881,260.968262 225.433578,261.066772 232.798523,261.503326 
z"/>
<path fill="#D49FD3" opacity="1.000000" stroke="none" 
	d="
M218.493210,564.891418 
	C224.357559,562.371033 230.328720,560.967957 236.809235,563.489990 
	C232.579437,564.222656 228.183578,564.621826 222.995132,565.033203 
	C220.966095,564.994141 219.729645,564.942749 218.493210,564.891418 
z"/>
<path fill="#501649" opacity="1.000000" stroke="none" 
	d="
M218.276352,564.958801 
	C219.729645,564.942749 220.966095,564.994141 222.569794,565.100586 
	C213.204681,565.290405 203.472321,565.425110 193.395996,565.338440 
	C200.640060,565.070801 208.228073,565.024536 216.268600,564.931946 
	C217.167252,564.932495 217.613373,564.979370 218.276352,564.958801 
z"/>
<path fill="#D191CC" opacity="1.000000" stroke="none" 
	d="
M217.205826,254.450623 
	C221.824448,254.153320 226.733170,254.169815 231.808167,254.529999 
	C227.148285,254.837265 222.322098,254.800827 217.205826,254.450623 
z"/>
<path fill="#D49FD3" opacity="1.000000" stroke="none" 
	d="
M241.450500,562.962463 
	C244.643997,560.723450 248.365723,559.167419 252.777161,561.590576 
	C249.260925,562.223572 245.573288,562.600220 241.450500,562.962463 
z"/>
<path fill="#571C54" opacity="1.000000" stroke="none" 
	d="
M196.626114,260.669464 
	C194.572937,261.235016 192.198792,261.601807 189.424072,261.918182 
	C191.450714,261.402100 193.877945,260.936401 196.626114,260.669464 
z"/>
<path fill="#5D2E5B" opacity="1.000000" stroke="none" 
	d="
M277.853058,127.776871 
	C276.055206,127.295555 274.195618,126.443336 272.108307,125.336121 
	C273.850830,125.856071 275.821075,126.631027 277.853058,127.776871 
z"/>
<path fill="#D191CC" opacity="1.000000" stroke="none" 
	d="
M190.410217,254.890167 
	C191.536148,254.449905 193.043060,254.064713 194.818253,253.903976 
	C193.654755,254.400696 192.222992,254.672958 190.410217,254.890167 
z"/>
<path fill="#571C54" opacity="1.000000" stroke="none" 
	d="
M208.683914,260.689606 
	C207.590271,260.909424 206.227921,260.936188 204.458923,260.916321 
	C205.506592,260.745300 206.960892,260.620941 208.683914,260.689606 
z"/>
<path fill="#5D2E5B" opacity="1.000000" stroke="none" 
	d="
M271.957367,124.830368 
	C271.351562,124.943192 270.769348,124.779152 270.042206,124.344223 
	C270.364746,124.050407 270.832214,124.027481 271.649841,124.001297 
	C271.993652,124.183197 271.987305,124.368347 271.957367,124.830368 
z"/>
<path fill="#BA7EB9" opacity="1.000000" stroke="none" 
	d="
M308.836243,534.827942 
	C308.975189,534.801453 309.209412,534.869629 309.283447,535.024170 
	C309.123291,535.110535 308.931519,534.922546 308.836243,534.827942 
z"/>
<path fill="#5D2E5B" opacity="1.000000" stroke="none" 
	d="
M278.824890,128.745850 
	C278.676361,128.794800 278.363190,128.665894 277.948242,128.289703 
	C278.142975,128.178482 278.414276,128.353683 278.824890,128.745850 
z"/>
<path fill="#652B5C" opacity="1.000000" stroke="none" 
	d="
M259.899475,204.935822 
	C259.841278,205.063446 259.671356,205.089081 259.247986,205.068146 
	C259.221954,204.758575 259.486359,204.695999 259.899475,204.935822 
z"/>
<path fill="#C27DBE" opacity="1.000000" stroke="none" 
	d="
M220.699463,66.338982 
	C222.595901,59.118881 224.388153,52.260567 226.364166,44.699139 
	C235.031784,51.482296 244.828171,54.487789 255.567719,56.551491 
	C254.396576,65.693993 253.197464,74.436813 251.157654,82.978882 
	C242.272827,120.185669 233.117432,157.327759 224.119919,194.507782 
	C221.657242,204.684189 219.401733,214.910736 217.051147,225.114288 
	C205.643738,226.951340 194.387070,226.513931 182.761826,223.267914 
	C195.453156,170.747086 208.024216,118.723930 220.699463,66.338982 
M227.723633,89.112175 
	C228.976761,83.770767 230.371918,78.457367 231.432800,73.078049 
	C232.133713,69.523949 232.581894,65.879181 232.645966,62.266193 
	C232.664200,61.236969 231.057327,59.506798 229.984329,59.321407 
	C228.933746,59.139896 227.125046,60.231918 226.516937,61.272240 
	C225.363037,63.246292 224.617783,65.531448 224.072403,67.777138 
	C220.736618,81.513023 217.320023,95.233871 214.309906,109.042465 
	C212.614517,116.819893 211.487244,124.735756 210.489395,132.637909 
	C210.297775,134.155350 211.901825,135.899506 212.677475,137.539078 
	C213.952637,136.341003 215.368790,135.254837 216.445251,133.899017 
	C217.008499,133.189575 216.970245,132.005280 217.212006,131.037506 
	C220.637085,117.327797 224.063583,103.618446 227.723633,89.112175 
z"/>
<path fill="#B463AB" opacity="1.000000" stroke="none" 
	d="
M217.470490,225.126038 
	C219.401733,214.910736 221.657242,204.684189 224.119919,194.507782 
	C233.117432,157.327759 242.272827,120.185669 251.157654,82.978882 
	C253.197464,74.436813 254.396576,65.693993 255.974060,56.620018 
	C259.692841,55.924030 263.420135,55.651581 267.367859,55.363022 
	C266.893646,58.727200 266.440247,61.943771 265.962128,65.577003 
	C263.393677,76.787354 260.760193,87.560822 258.322968,98.378502 
	C250.919693,131.238129 243.603699,164.117401 236.225143,196.982605 
	C234.844421,203.132584 232.888474,209.190231 232.009308,215.405243 
	C231.194717,221.163773 228.263519,223.872833 222.804108,224.488327 
	C221.162476,224.673401 219.527740,224.919601 217.470490,225.126038 
z"/>
<path fill="#B56DB0" opacity="1.000000" stroke="none" 
	d="
M239.662857,213.291702 
	C244.294907,213.730331 248.875671,213.971359 253.044952,215.407257 
	C255.332306,216.195007 258.280609,218.879883 258.458588,220.924530 
	C258.644043,223.055237 256.361176,226.556931 254.270264,227.507431 
	C248.567352,230.099899 242.519333,232.588181 236.380463,233.402847 
	C228.486923,234.450378 220.371750,233.827820 212.151794,233.603806 
	C216.497925,232.610626 221.093399,232.168518 225.579178,231.211975 
	C232.289398,229.781052 237.613739,226.742279 238.102783,218.812912 
	C238.211395,217.052032 238.976868,215.331650 239.662857,213.291702 
z"/>
<path fill="#C08CC0" opacity="1.000000" stroke="none" 
	d="
M75.168777,284.746765 
	C72.513512,284.048096 70.033295,283.093781 67.193047,282.076233 
	C66.563385,280.598816 66.293755,279.184631 65.863426,276.927551 
	C69.213440,278.236938 71.864746,279.273224 74.799194,280.502594 
	C75.169502,281.960846 75.256660,283.226013 75.168777,284.746765 
z"/>
<path fill="#6F3167" opacity="1.000000" stroke="none" 
	d="
M246.999268,204.323944 
	C246.304108,204.606644 245.441681,204.626404 244.281189,204.510574 
	C244.932770,204.270325 245.882385,204.165680 246.999268,204.323944 
z"/>
<path fill="#5D2E5B" opacity="1.000000" stroke="none" 
	d="
M269.808411,123.783043 
	C268.618958,123.662697 267.309357,123.186897 265.792969,122.427094 
	C266.953552,122.571266 268.320892,122.999428 269.808411,123.783043 
z"/>
<path fill="#CB90C8" opacity="1.000000" stroke="none" 
	d="
M105.623245,544.292664 
	C105.805222,544.250244 106.174026,544.485291 106.754425,544.970825 
	C106.580696,545.004272 106.195389,544.787170 105.623245,544.292664 
z"/>
<path fill="#823675" opacity="1.000000" stroke="none" 
	d="
M246.256317,47.934074 
	C241.336288,45.780258 236.678787,43.967659 232.349167,41.564331 
	C230.905899,40.763184 230.302368,38.449265 229.314941,36.826897 
	C231.087326,35.885269 232.806351,34.257648 234.640884,34.114929 
	C245.402802,33.277695 255.355133,36.586563 264.865784,41.143078 
	C266.775238,42.057892 267.823273,44.770748 269.268463,46.654572 
	C267.312408,47.712250 265.339569,49.689003 263.403473,49.653633 
	C257.809998,49.551456 252.231308,48.639050 246.256317,47.934074 
z"/>
<path fill="#D79AD5" opacity="1.000000" stroke="none" 
	d="
M249.246521,242.929535 
	C248.109909,241.741043 247.353088,240.580490 246.596268,239.419922 
	C247.851730,238.736954 249.095779,237.578018 250.366928,237.547531 
	C251.142990,237.528885 252.808411,239.634766 252.592056,240.106384 
	C252.059967,241.266159 250.670792,242.032745 249.246521,242.929535 
z"/>
<path fill="#D89AD7" opacity="1.000000" stroke="none" 
	d="
M273.520996,224.666779 
	C271.885895,224.054382 270.603424,223.298615 269.320953,222.542862 
	C270.607056,221.781082 271.893188,221.019302 273.179291,220.257523 
	C273.410706,221.679474 273.642151,223.101440 273.520996,224.666779 
z"/>
<path fill="#EBECF7" opacity="1.000000" stroke="none" 
	d="
M116.298325,151.273102 
	C124.835396,144.528259 133.324677,138.377838 143.797684,135.874969 
	C147.426346,135.007767 152.004471,133.113251 154.191788,137.353943 
	C156.553543,141.932785 151.573654,144.077759 148.869858,146.248230 
	C139.687958,153.619003 129.708954,160.056412 120.956459,167.881622 
	C115.098770,173.118744 110.872635,180.161179 105.787445,186.288742 
	C102.400139,190.370377 99.045395,194.547882 95.149574,198.105988 
	C93.509369,199.604004 90.511986,199.616028 88.131554,200.303558 
	C87.509850,197.881119 85.666901,194.899094 86.476402,193.132462 
	C90.111603,185.199249 93.785416,177.100815 98.822670,170.045364 
	C103.680878,163.240707 110.227219,157.641296 116.298325,151.273102 
z"/>
<path fill="#E8E9F8" opacity="1.000000" stroke="none" 
	d="
M167.605774,123.389740 
	C169.870956,124.093063 171.757095,124.914398 173.643219,125.735733 
	C172.089188,127.087227 170.578354,128.494385 168.954117,129.755447 
	C168.482666,130.121506 167.647293,130.281006 167.046417,130.169724 
	C165.141678,129.816956 163.268890,129.291489 161.383759,128.832794 
	C162.567215,127.376022 163.671005,125.841949 164.972885,124.500069 
	C165.502472,123.954216 166.462509,123.825989 167.605774,123.389740 
z"/>
<path fill="#E7EAFA" opacity="1.000000" stroke="none" 
	d="
M120.615990,190.613586 
	C121.532326,189.202805 122.631790,188.086395 123.731262,186.969986 
	C124.362297,187.987823 124.993332,189.005646 125.624374,190.023483 
	C124.015953,190.318314 122.407539,190.613129 120.615990,190.613586 
z"/>
<path fill="#CC8FCA" opacity="1.000000" stroke="none" 
	d="
M157.432190,539.725464 
	C143.636673,536.324341 129.764282,533.763855 116.826263,528.778564 
	C103.182487,523.521301 94.702217,512.810059 92.964622,497.568176 
	C91.178963,481.904572 88.895042,466.295380 87.265419,450.617035 
	C85.858757,437.083679 85.040077,423.488525 84.006149,409.917236 
	C82.695213,392.710052 81.402351,375.501373 80.154228,358.289520 
	C79.385796,347.692627 78.743225,337.086639 77.994019,326.488251 
	C77.057976,313.246948 76.070419,300.009338 75.104568,286.340942 
	C88.842476,289.139252 102.486275,292.876953 116.346489,295.447937 
	C129.681061,297.921387 143.192719,300.090515 156.709610,300.791107 
	C182.443741,302.124847 208.237915,302.819153 234.005417,302.774506 
	C247.228241,302.751617 260.457153,300.659668 273.665039,299.322418 
	C284.898071,298.185120 296.078735,296.354004 307.333527,295.675568 
	C313.809631,295.285156 317.588409,296.578033 317.063080,304.652130 
	C315.629211,326.691650 314.504303,348.751129 313.102020,370.792877 
	C312.206024,384.876617 311.117859,398.949860 309.941132,413.013184 
	C309.532318,417.899139 308.598419,422.741150 307.464355,427.443176 
	C306.357483,426.136108 305.772919,424.931000 305.010468,423.851532 
	C299.879883,416.587830 290.440582,413.290771 282.581512,415.972473 
	C273.749603,418.986115 267.364136,429.068573 268.116760,438.811768 
	C268.806793,447.744476 274.768646,454.049805 283.996063,456.099274 
	C292.905487,458.078156 299.392761,454.215424 305.072632,448.017120 
	C305.030640,453.734222 305.408661,459.492584 304.852600,465.159210 
	C303.915649,474.707001 302.918182,484.306519 300.980713,493.684845 
	C298.089417,507.680267 289.181366,517.162964 276.207794,522.711365 
	C270.484314,525.159058 264.453491,526.888123 258.260803,528.577881 
	C258.721649,526.931580 259.568665,525.693115 260.232300,524.363159 
	C264.356934,516.097107 262.306580,505.967499 255.328491,499.929291 
	C248.975235,494.431702 239.398178,494.140839 231.784256,499.237000 
	C220.380264,506.869995 216.689743,524.832764 233.155014,534.960022 
	C217.450012,535.979248 201.747498,537.039490 186.039062,538.002441 
	C176.619583,538.579895 167.190826,539.005737 157.432190,539.725464 
M285.229126,368.421173 
	C293.143494,361.235901 296.788055,352.505554 295.124573,341.730743 
	C293.196625,329.242920 286.007233,321.146790 274.044403,317.995544 
	C262.256683,314.890411 252.230682,318.877655 245.117065,328.671234 
	C237.874130,338.642792 237.185608,349.425446 242.965408,360.522308 
	C248.712158,371.555695 258.471252,375.321594 270.088501,376.741882 
	C270.043060,385.277527 278.846527,397.829559 286.958710,400.639069 
	C288.001923,401.000427 289.462006,401.244415 290.350647,400.794922 
	C297.771393,397.040985 305.309753,393.292603 308.468811,384.761749 
	C310.249481,379.953247 308.861450,372.985779 304.638641,370.895721 
	C301.657074,369.419952 296.724670,368.912872 294.070282,370.432037 
	C289.885376,372.827087 287.506287,372.281738 285.229126,368.421173 
M139.838745,375.119293 
	C143.313171,374.891693 146.902802,375.146606 150.241257,374.349487 
	C162.079956,371.522858 170.777542,359.903534 171.066635,347.070740 
	C171.364777,333.836395 162.733658,321.689636 150.381851,317.960541 
	C138.750763,314.449066 125.636490,319.617676 118.847916,330.349945 
	C111.627396,341.765167 112.183006,357.277802 124.699310,369.405945 
	C122.130638,371.772736 119.715385,372.581207 116.278732,370.377686 
	C112.585815,368.009796 108.170326,367.857635 104.608765,370.821320 
	C101.094971,373.745148 99.594208,377.770599 100.639580,382.449188 
	C102.786789,392.059143 110.470512,396.625824 117.988861,401.266846 
	C118.789169,401.760864 120.297455,401.533020 121.317932,401.179718 
	C131.930771,397.505310 139.287003,386.583496 139.838745,375.119293 
M218.908173,440.561279 
	C218.014587,444.378906 216.220093,448.241730 216.408798,452.005096 
	C216.846008,460.724335 223.006485,467.331635 231.517090,469.569366 
	C239.499603,471.668182 248.813995,467.839203 254.005051,460.324982 
	C258.238617,454.196838 257.927460,443.611816 253.712540,437.223785 
	C246.658218,426.532440 228.364243,423.904175 218.908173,440.561279 
M143.126389,441.215912 
	C142.823349,435.536621 143.767883,429.409058 141.925995,424.282684 
	C139.136719,416.519501 131.830887,413.304108 123.865067,413.484375 
	C115.460854,413.674530 109.551323,418.719788 106.099213,426.081879 
	C102.627525,433.485748 102.998932,440.910919 108.161018,447.696899 
	C116.323433,458.427032 136.263458,457.831573 143.126389,441.215912 
M166.327423,432.491119 
	C157.942352,436.830780 153.741669,443.909241 154.370316,453.145416 
	C154.932465,461.404724 159.419174,467.657745 167.584579,470.091278 
	C176.119370,472.634918 184.051529,471.230347 190.319214,464.250183 
	C196.144043,457.763275 196.816269,447.732483 191.989441,440.178650 
	C186.715424,431.924957 177.544235,428.959167 166.327423,432.491119 
M130.137970,461.366882 
	C114.094742,465.775391 107.127518,483.202606 116.676155,495.039154 
	C122.643417,502.436249 133.135452,504.507416 141.887390,500.016052 
	C149.768112,495.971771 154.574295,485.874725 152.432632,477.862000 
	C149.477386,466.805328 141.651764,460.723114 130.137970,461.366882 
M275.079315,502.744171 
	C287.386322,499.310791 294.367706,488.718445 291.571472,477.721802 
	C288.796844,466.810120 278.845703,460.112946 268.389893,462.120422 
	C257.946411,464.125519 250.312546,475.367767 251.932343,486.560516 
	C253.057510,494.335236 261.317993,504.855469 275.079315,502.744171 
M199.078934,470.224915 
	C188.945450,475.226471 183.747299,486.391235 186.907562,496.367035 
	C189.897247,505.804474 198.664825,510.708862 209.428268,508.964539 
	C221.060974,507.079315 228.403381,495.421448 225.497757,483.450226 
	C222.720016,472.005981 211.407104,466.075531 199.078934,470.224915 
M163.286789,494.625824 
	C161.264069,495.332245 159.133881,495.825531 157.237366,496.782166 
	C149.254761,500.808594 144.527100,511.160583 146.578140,519.428894 
	C149.372559,530.693909 157.381531,534.906799 165.876846,534.877686 
	C177.450821,534.838013 186.271957,525.036804 185.939865,513.317261 
	C185.629227,502.355499 175.843552,493.887207 163.286789,494.625824 
M197.295914,377.469360 
	C209.811234,382.474823 223.781784,374.033203 226.321167,363.283752 
	C226.745193,361.488800 226.058197,358.138153 224.849152,357.514832 
	C222.178406,356.138000 220.556137,358.063477 219.666260,360.969086 
	C217.723099,367.313751 211.570557,371.753052 205.141663,371.922516 
	C198.770584,372.090454 192.899170,367.410522 190.164886,360.738281 
	C189.512360,359.145996 187.068481,358.287811 185.448532,357.091980 
	C184.712677,358.996002 183.003021,361.144836 183.409470,362.761719 
	C185.171417,369.770905 189.704727,374.615112 197.295914,377.469360 
M93.917526,333.173767 
	C94.275864,331.595856 94.981903,330.007080 94.932892,328.441925 
	C94.710037,321.325562 94.295906,314.214569 93.890755,307.105072 
	C93.835144,306.129333 93.753021,304.852570 93.148544,304.269012 
	C91.529602,302.706146 89.620224,301.444122 87.826218,300.062592 
	C86.572586,301.911652 84.391838,303.694916 84.254913,305.623260 
	C83.953430,309.869324 84.692924,314.188049 84.990013,318.478302 
	C85.252632,322.270782 85.136627,326.130646 85.824310,329.842834 
	C86.845215,335.353790 87.989120,335.769257 93.917526,333.173767 
M90.613098,346.945099 
	C91.711220,345.691803 93.098434,344.568115 93.750221,343.114655 
	C93.977432,342.607910 92.323860,340.455841 91.643234,340.509186 
	C90.178558,340.623993 88.787872,341.682617 87.366913,342.354950 
	C88.186798,343.861603 89.006683,345.368256 90.613098,346.945099 
z"/>
<path fill="#6F2E64" opacity="1.000000" stroke="none" 
	d="
M305.196655,447.683716 
	C299.392761,454.215424 292.905487,458.078156 283.996063,456.099274 
	C274.768646,454.049805 268.806793,447.744476 268.116760,438.811768 
	C267.364136,429.068573 273.749603,418.986115 282.581512,415.972473 
	C290.440582,413.290771 299.879883,416.587830 305.010468,423.851532 
	C305.772919,424.931000 306.357483,426.136108 307.136292,427.619659 
	C310.046814,434.762939 309.012909,441.188751 305.196655,447.683716 
M285.491638,428.909698 
	C284.443359,426.984589 283.553314,424.929779 282.187958,423.264648 
	C281.965607,422.993469 278.577484,424.340057 278.500000,425.122009 
	C278.310944,427.029633 279.205261,429.044556 279.663391,431.016266 
	C281.485565,430.530731 283.307739,430.045166 285.491638,428.909698 
z"/>
<path fill="#6F2D63" opacity="1.000000" stroke="none" 
	d="
M233.534698,534.994141 
	C216.689743,524.832764 220.380264,506.869995 231.784256,499.237000 
	C239.398178,494.140839 248.975235,494.431702 255.328491,499.929291 
	C262.306580,505.967499 264.356934,516.097107 260.232300,524.363159 
	C259.568665,525.693115 258.721649,526.931580 257.841400,528.557373 
	C257.723389,528.902344 257.845703,529.034912 257.617249,529.030701 
	C257.124481,529.338074 256.860168,529.649658 256.595825,529.961182 
	C249.808624,535.111572 242.713013,538.881409 233.534698,534.994141 
M239.853424,506.659607 
	C239.169724,503.995453 237.511765,502.173767 234.912048,503.786987 
	C233.464523,504.685272 232.596695,507.036133 232.215927,508.886383 
	C232.058182,509.652924 234.490875,511.778900 234.669067,511.660919 
	C236.519989,510.435425 238.151321,508.878265 239.853424,506.659607 
z"/>
<path fill="#CC8FCA" opacity="1.000000" stroke="none" 
	d="
M256.854858,529.825195 
	C256.860168,529.649658 257.124481,529.338074 257.693298,528.982239 
	C257.703156,529.188416 257.408478,529.438843 256.854858,529.825195 
z"/>
<path fill="#EDEAF9" opacity="1.000000" stroke="none" 
	d="
M78.269653,262.787476 
	C79.844925,261.641754 81.631912,259.963074 82.986832,260.259460 
	C88.660713,261.500702 94.258278,263.179199 99.756409,265.068237 
	C101.002670,265.496429 102.527252,267.438354 102.482307,268.629120 
	C102.439735,269.757111 100.198143,271.932220 99.450676,271.727051 
	C92.669296,269.865448 85.989937,267.622467 79.329651,265.347839 
	C78.794342,265.165039 78.623085,263.916290 78.269653,262.787476 
z"/>
<path fill="#EDE7F8" opacity="1.000000" stroke="none" 
	d="
M116.578476,273.578979 
	C116.642250,268.919769 118.569717,267.160522 121.988434,268.628723 
	C123.284554,269.185364 123.999054,271.096252 124.978661,272.389893 
	C123.799995,273.254730 122.705879,274.637115 121.420258,274.847137 
	C119.967781,275.084381 118.343216,274.268158 116.578476,273.578979 
z"/>
<path fill="#E7EAFC" opacity="1.000000" stroke="none" 
	d="
M298.620483,186.712097 
	C298.752808,188.407425 298.574188,189.940994 298.395569,191.474564 
	C297.362244,190.961426 296.328888,190.448288 295.295563,189.935150 
	C296.300201,188.806870 297.304871,187.678604 298.620483,186.712097 
z"/>
<path fill="#BB7DBB" opacity="1.000000" stroke="none" 
	d="
M334.995575,283.993652 
	C334.990845,283.987335 335.152679,283.754700 335.152679,283.754700 
	C335.152679,283.754700 335.145935,283.935394 335.079681,283.972351 
	C335.013428,284.009338 335.000305,284.000000 334.995575,283.993652 
z"/>
<path fill="#C698CB" opacity="1.000000" stroke="none" 
	d="
M157.308258,265.123779 
	C157.136765,264.325592 157.319397,263.102844 157.433563,263.109222 
	C160.436279,263.276489 163.431915,263.570892 166.383072,264.668762 
	C164.809875,264.949127 163.236679,265.229492 161.379486,265.701111 
	C159.940475,265.685577 158.785461,265.478760 157.308258,265.123779 
z"/>
<path fill="#D599D6" opacity="1.000000" stroke="none" 
	d="
M227.606689,89.510590 
	C224.063583,103.618446 220.637085,117.327797 217.212006,131.037506 
	C216.970245,132.005280 217.008499,133.189575 216.445251,133.899017 
	C215.368790,135.254837 213.952637,136.341003 212.677475,137.539078 
	C211.901825,135.899506 210.297775,134.155350 210.489395,132.637909 
	C211.487244,124.735756 212.614517,116.819893 214.309906,109.042465 
	C217.320023,95.233871 220.736618,81.513023 224.072403,67.777138 
	C224.617783,65.531448 225.363037,63.246292 226.516937,61.272240 
	C227.125046,60.231918 228.933746,59.139896 229.984329,59.321407 
	C231.057327,59.506798 232.664200,61.236969 232.645966,62.266193 
	C232.581894,65.879181 232.133713,69.523949 231.432800,73.078049 
	C230.371918,78.457367 228.976761,83.770767 227.606689,89.510590 
z"/>
<path fill="#5B2251" opacity="1.000000" stroke="none" 
	d="
M125.207001,368.891602 
	C112.183006,357.277802 111.627396,341.765167 118.847916,330.349945 
	C125.636490,319.617676 138.750763,314.449066 150.381851,317.960541 
	C162.733658,321.689636 171.364777,333.836395 171.066635,347.070740 
	C170.777542,359.903534 162.079956,371.522858 150.241257,374.349487 
	C146.902802,375.146606 143.313171,374.891693 139.075333,375.008667 
	C135.023758,370.539215 130.708542,368.421234 125.207001,368.891602 
M140.808441,340.095520 
	C142.545959,335.513855 141.757828,331.628723 137.522781,328.830444 
	C134.083771,326.558136 130.607361,326.838257 127.388519,329.267059 
	C123.089767,332.510712 122.646317,338.512299 126.297554,342.347809 
	C130.241669,346.490967 135.764633,345.858856 140.808441,340.095520 
M145.822495,351.705231 
	C147.252090,351.876099 148.993423,352.602264 150.007507,352.032928 
	C150.749100,351.616669 150.887451,349.413116 150.593552,348.172302 
	C150.451263,347.571594 148.079636,346.760101 147.785080,347.067444 
	C146.736221,348.161682 146.145920,349.695465 145.822495,351.705231 
z"/>
<path fill="#5C2251" opacity="1.000000" stroke="none" 
	d="
M270.099640,375.864777 
	C258.471252,375.321594 248.712158,371.555695 242.965408,360.522308 
	C237.185608,349.425446 237.874130,338.642792 245.117065,328.671234 
	C252.230682,318.877655 262.256683,314.890411 274.044403,317.995544 
	C286.007233,321.146790 293.196625,329.242920 295.124573,341.730743 
	C296.788055,352.505554 293.143494,361.235901 284.636719,368.788452 
	C277.864319,368.208282 273.655334,371.357574 270.099640,375.864777 
M259.790466,327.694214 
	C254.951508,326.606537 251.727646,328.717957 249.806946,332.986633 
	C247.980774,337.045227 249.277328,340.478302 252.564499,343.169678 
	C256.026672,346.004364 259.657654,345.606384 263.068268,343.077637 
	C268.353760,339.158783 267.453278,330.130402 259.790466,327.694214 
M274.247803,352.795776 
	C274.480988,351.007019 274.714172,349.218262 274.947357,347.429504 
	C273.488953,347.683319 271.203827,347.456665 270.725342,348.279999 
	C269.217590,350.874359 270.408264,352.640350 274.247803,352.795776 
z"/>
<path fill="#6F2D63" opacity="1.000000" stroke="none" 
	d="
M219.050232,440.213196 
	C228.364243,423.904175 246.658218,426.532440 253.712540,437.223785 
	C257.927460,443.611816 258.238617,454.196838 254.005051,460.324982 
	C248.813995,467.839203 239.499603,471.668182 231.517090,469.569366 
	C223.006485,467.331635 216.846008,460.724335 216.408798,452.005096 
	C216.220093,448.241730 218.014587,444.378906 219.050232,440.213196 
M226.527786,440.128662 
	C225.851334,442.888672 226.792557,445.065796 229.699677,444.813141 
	C231.383057,444.666840 233.683914,443.083832 234.268372,441.586090 
	C234.721146,440.425873 232.942505,438.394867 232.155792,436.750977 
	C230.383759,437.649750 228.611710,438.548523 226.527786,440.128662 
z"/>
<path fill="#6E2D63" opacity="1.000000" stroke="none" 
	d="
M143.005508,441.600983 
	C136.263458,457.831573 116.323433,458.427032 108.161018,447.696899 
	C102.998932,440.910919 102.627525,433.485748 106.099213,426.081879 
	C109.551323,418.719788 115.460854,413.674530 123.865067,413.484375 
	C131.830887,413.304108 139.136719,416.519501 141.925995,424.282684 
	C143.767883,429.409058 142.823349,435.536621 143.005508,441.600983 
M122.531670,425.338531 
	C121.075493,423.909637 119.819511,421.965851 118.071938,421.286438 
	C117.291550,420.983002 114.727150,423.030273 114.411545,424.353821 
	C114.043640,425.896729 114.741325,428.797394 115.870583,429.381927 
	C118.977898,430.990417 121.174606,429.122223 122.531670,425.338531 
z"/>
<path fill="#6E2D63" opacity="1.000000" stroke="none" 
	d="
M166.674118,432.297668 
	C177.544235,428.959167 186.715424,431.924957 191.989441,440.178650 
	C196.816269,447.732483 196.144043,457.763275 190.319214,464.250183 
	C184.051529,471.230347 176.119370,472.634918 167.584579,470.091278 
	C159.419174,467.657745 154.932465,461.404724 154.370316,453.145416 
	C153.741669,443.909241 157.942352,436.830780 166.674118,432.297668 
M168.552643,437.976624 
	C165.042419,437.929291 163.775970,440.132690 164.169464,443.100189 
	C164.338821,444.377472 166.046692,446.512970 166.850967,446.423309 
	C168.539444,446.235016 170.869049,445.203308 171.519852,443.841370 
	C172.505737,441.778198 173.022598,438.847809 168.552643,437.976624 
z"/>
<path fill="#6E2D63" opacity="1.000000" stroke="none" 
	d="
M130.540497,461.263336 
	C141.651764,460.723114 149.477386,466.805328 152.432632,477.862000 
	C154.574295,485.874725 149.768112,495.971771 141.887390,500.016052 
	C133.135452,504.507416 122.643417,502.436249 116.676155,495.039154 
	C107.127518,483.202606 114.094742,465.775391 130.540497,461.263336 
M129.970917,472.392578 
	C129.111694,470.997131 128.527191,468.899414 127.308578,468.422699 
	C126.285507,468.022461 123.592056,469.228760 123.289139,470.225494 
	C122.721848,472.092255 122.587883,475.504272 123.627007,476.174133 
	C126.468079,478.005585 128.957108,476.637726 129.970917,472.392578 
z"/>
<path fill="#6F2D63" opacity="1.000000" stroke="none" 
	d="
M274.686737,502.794312 
	C261.317993,504.855469 253.057510,494.335236 251.932343,486.560516 
	C250.312546,475.367767 257.946411,464.125519 268.389893,462.120422 
	C278.845703,460.112946 288.796844,466.810120 291.571472,477.721802 
	C294.367706,488.718445 287.386322,499.310791 274.686737,502.794312 
M263.779205,477.919098 
	C265.465820,477.023407 268.221924,476.420685 268.567810,475.157776 
	C268.998322,473.585938 267.811249,471.132568 266.560364,469.749146 
	C266.041962,469.175842 262.228973,470.274323 262.182800,470.808624 
	C261.987366,473.069061 262.645172,475.403290 263.779205,477.919098 
z"/>
<path fill="#6F2D63" opacity="1.000000" stroke="none" 
	d="
M199.466248,470.115997 
	C211.407104,466.075531 222.720016,472.005981 225.497757,483.450226 
	C228.403381,495.421448 221.060974,507.079315 209.428268,508.964539 
	C198.664825,510.708862 189.897247,505.804474 186.907562,496.367035 
	C183.747299,486.391235 188.945450,475.226471 199.466248,470.115997 
M199.364517,484.799438 
	C200.402222,484.331329 202.072418,484.099335 202.352722,483.348480 
	C203.045883,481.491699 203.398163,479.370117 203.218704,477.416382 
	C203.170502,476.891754 200.140366,475.834442 199.497070,476.333618 
	C198.011520,477.486267 196.668243,479.324829 196.228516,481.120575 
	C195.992142,482.085785 197.740784,483.537079 199.364517,484.799438 
z"/>
<path fill="#6E2D63" opacity="1.000000" stroke="none" 
	d="
M163.674789,494.505615 
	C175.843552,493.887207 185.629227,502.355499 185.939865,513.317261 
	C186.271957,525.036804 177.450821,534.838013 165.876846,534.877686 
	C157.381531,534.906799 149.372559,530.693909 146.578140,519.428894 
	C144.527100,511.160583 149.254761,500.808594 157.237366,496.782166 
	C159.133881,495.825531 161.264069,495.332245 163.674789,494.505615 
M159.335342,509.995056 
	C160.824692,508.115784 162.314041,506.236542 163.803391,504.357269 
	C162.428040,503.322449 160.636337,501.166321 159.765335,501.489746 
	C158.032333,502.133240 156.289398,503.904114 155.493439,505.641266 
	C154.354111,508.127869 155.792664,509.746643 159.335342,509.995056 
z"/>
<path fill="#F7649B" opacity="1.000000" stroke="none" 
	d="
M124.953156,369.148773 
	C130.708542,368.421234 135.023758,370.539215 138.614838,375.052734 
	C139.287003,386.583496 131.930771,397.505310 121.317932,401.179718 
	C120.297455,401.533020 118.789169,401.760864 117.988861,401.266846 
	C110.470512,396.625824 102.786789,392.059143 100.639580,382.449188 
	C99.594208,377.770599 101.094971,373.745148 104.608765,370.821320 
	C108.170326,367.857635 112.585815,368.009796 116.278732,370.377686 
	C119.715385,372.581207 122.130638,371.772736 124.953156,369.148773 
z"/>
<path fill="#F7659B" opacity="1.000000" stroke="none" 
	d="
M270.094055,376.303345 
	C273.655334,371.357574 277.864319,368.208282 284.452087,369.073120 
	C287.506287,372.281738 289.885376,372.827087 294.070282,370.432037 
	C296.724670,368.912872 301.657074,369.419952 304.638641,370.895721 
	C308.861450,372.985779 310.249481,379.953247 308.468811,384.761749 
	C305.309753,393.292603 297.771393,397.040985 290.350647,400.794922 
	C289.462006,401.244415 288.001923,401.000427 286.958710,400.639069 
	C278.846527,397.829559 270.043060,385.277527 270.094055,376.303345 
z"/>
<path fill="#622759" opacity="1.000000" stroke="none" 
	d="
M196.943604,377.289734 
	C189.704727,374.615112 185.171417,369.770905 183.409470,362.761719 
	C183.003021,361.144836 184.712677,358.996002 185.448532,357.091980 
	C187.068481,358.287811 189.512360,359.145996 190.164886,360.738281 
	C192.899170,367.410522 198.770584,372.090454 205.141663,371.922516 
	C211.570557,371.753052 217.723099,367.313751 219.666260,360.969086 
	C220.556137,358.063477 222.178406,356.138000 224.849152,357.514832 
	C226.058197,358.138153 226.745193,361.488800 226.321167,363.283752 
	C223.781784,374.033203 209.811234,382.474823 196.943604,377.289734 
z"/>
<path fill="#D9A1DA" opacity="1.000000" stroke="none" 
	d="
M93.608398,333.436218 
	C87.989120,335.769257 86.845215,335.353790 85.824310,329.842834 
	C85.136627,326.130646 85.252632,322.270782 84.990013,318.478302 
	C84.692924,314.188049 83.953430,309.869324 84.254913,305.623260 
	C84.391838,303.694916 86.572586,301.911652 87.826218,300.062592 
	C89.620224,301.444122 91.529602,302.706146 93.148544,304.269012 
	C93.753021,304.852570 93.835144,306.129333 93.890755,307.105072 
	C94.295906,314.214569 94.710037,321.325562 94.932892,328.441925 
	C94.981903,330.007080 94.275864,331.595856 93.608398,333.436218 
z"/>
<path fill="#DA9FD9" opacity="1.000000" stroke="none" 
	d="
M90.219833,346.910004 
	C89.006683,345.368256 88.186798,343.861603 87.366913,342.354950 
	C88.787872,341.682617 90.178558,340.623993 91.643234,340.509186 
	C92.323860,340.455841 93.977432,342.607910 93.750221,343.114655 
	C93.098434,344.568115 91.711220,345.691803 90.219833,346.910004 
z"/>
<path fill="#8F4786" opacity="1.000000" stroke="none" 
	d="
M285.310791,429.234650 
	C283.307739,430.045166 281.485565,430.530731 279.663391,431.016296 
	C279.205261,429.044556 278.310944,427.029633 278.500000,425.122009 
	C278.577484,424.340057 281.965607,422.993469 282.187958,423.264648 
	C283.553314,424.929779 284.443359,426.984589 285.310791,429.234650 
z"/>
<path fill="#934A88" opacity="1.000000" stroke="none" 
	d="
M239.848511,507.036377 
	C238.151321,508.878265 236.519989,510.435425 234.669067,511.660919 
	C234.490875,511.778900 232.058182,509.652924 232.215927,508.886383 
	C232.596695,507.036133 233.464523,504.685272 234.912048,503.786987 
	C237.511765,502.173767 239.169724,503.995453 239.848511,507.036377 
z"/>
<path fill="#F7F2F8" opacity="1.000000" stroke="none" 
	d="
M140.602844,340.414795 
	C135.764633,345.858856 130.241669,346.490967 126.297554,342.347809 
	C122.646317,338.512299 123.089767,332.510712 127.388519,329.267059 
	C130.607361,326.838257 134.083771,326.558136 137.522781,328.830444 
	C141.757828,331.628723 142.545959,335.513855 140.602844,340.414795 
z"/>
<path fill="#F4EAF4" opacity="1.000000" stroke="none" 
	d="
M145.602264,351.384033 
	C146.145920,349.695465 146.736221,348.161682 147.785080,347.067444 
	C148.079636,346.760101 150.451263,347.571594 150.593552,348.172302 
	C150.887451,349.413116 150.749100,351.616669 150.007507,352.032928 
	C148.993423,352.602264 147.252090,351.876099 145.602264,351.384033 
z"/>
<path fill="#F7F3FA" opacity="1.000000" stroke="none" 
	d="
M260.155975,327.789062 
	C267.453278,330.130402 268.353760,339.158783 263.068268,343.077637 
	C259.657654,345.606384 256.026672,346.004364 252.564499,343.169678 
	C249.277328,340.478302 247.980774,337.045227 249.806946,332.986633 
	C251.727646,328.717957 254.951508,326.606537 260.155975,327.789062 
z"/>
<path fill="#F8EBF7" opacity="1.000000" stroke="none" 
	d="
M273.854919,352.881958 
	C270.408264,352.640350 269.217590,350.874359 270.725342,348.279999 
	C271.203827,347.456665 273.488953,347.683319 274.947357,347.429504 
	C274.714172,349.218262 274.480988,351.007019 273.854919,352.881958 
z"/>
<path fill="#914787" opacity="1.000000" stroke="none" 
	d="
M226.683716,439.787964 
	C228.611710,438.548523 230.383759,437.649750 232.155792,436.750977 
	C232.942505,438.394867 234.721146,440.425873 234.268372,441.586090 
	C233.683914,443.083832 231.383057,444.666840 229.699677,444.813141 
	C226.792557,445.065796 225.851334,442.888672 226.683716,439.787964 
z"/>
<path fill="#924989" opacity="1.000000" stroke="none" 
	d="
M122.441299,425.694153 
	C121.174606,429.122223 118.977898,430.990417 115.870583,429.381927 
	C114.741325,428.797394 114.043640,425.896729 114.411545,424.353821 
	C114.727150,423.030273 117.291550,420.983002 118.071938,421.286438 
	C119.819511,421.965851 121.075493,423.909637 122.441299,425.694153 
z"/>
<path fill="#8E4885" opacity="1.000000" stroke="none" 
	d="
M168.960266,437.992737 
	C173.022598,438.847809 172.505737,441.778198 171.519852,443.841370 
	C170.869049,445.203308 168.539444,446.235016 166.850967,446.423309 
	C166.046692,446.512970 164.338821,444.377472 164.169464,443.100189 
	C163.775970,440.132690 165.042419,437.929291 168.960266,437.992737 
z"/>
<path fill="#914887" opacity="1.000000" stroke="none" 
	d="
M129.938171,472.787689 
	C128.957108,476.637726 126.468079,478.005585 123.627007,476.174133 
	C122.587883,475.504272 122.721848,472.092255 123.289139,470.225494 
	C123.592056,469.228760 126.285507,468.022461 127.308578,468.422699 
	C128.527191,468.899414 129.111694,470.997131 129.938171,472.787689 
z"/>
<path fill="#904989" opacity="1.000000" stroke="none" 
	d="
M263.385132,477.814819 
	C262.645172,475.403290 261.987366,473.069061 262.182800,470.808624 
	C262.228973,470.274323 266.041962,469.175842 266.560364,469.749146 
	C267.811249,471.132568 268.998322,473.585938 268.567810,475.157776 
	C268.221924,476.420685 265.465820,477.023407 263.385132,477.814819 
z"/>
<path fill="#904887" opacity="1.000000" stroke="none" 
	d="
M198.979126,484.784241 
	C197.740784,483.537079 195.992142,482.085785 196.228516,481.120575 
	C196.668243,479.324829 198.011520,477.486267 199.497070,476.333618 
	C200.140366,475.834442 203.170502,476.891754 203.218704,477.416382 
	C203.398163,479.370117 203.045883,481.491699 202.352722,483.348480 
	C202.072418,484.099335 200.402222,484.331329 198.979126,484.784241 
z"/>
<path fill="#8F4886" opacity="1.000000" stroke="none" 
	d="
M158.944580,509.988007 
	C155.792664,509.746643 154.354111,508.127869 155.493439,505.641266 
	C156.289398,503.904114 158.032333,502.133240 159.765335,501.489746 
	C160.636337,501.166321 162.428040,503.322449 163.803391,504.357269 
	C162.314041,506.236542 160.824692,508.115784 158.944580,509.988007 
z"/>
</svg>
